<svg id="svg" version="1.1" xmlns="http://www.w3.org/2000/svg" xmlns:xlink="http://www.w3.org/1999/xlink" width="400" height="400" viewBox="0, 0, 400,400"><g id="svgg"><path id="path0" d="M195.000 100.834 C 191.920 100.996,188.950 101.224,188.400 101.341 C 187.850 101.458,185.960 101.768,184.200 102.030 C 182.440 102.291,180.010 102.769,178.800 103.091 C 177.590 103.414,175.970 103.828,175.200 104.012 C 174.430 104.196,173.170 104.527,172.400 104.746 C 171.630 104.966,170.550 105.274,170.000 105.431 C 169.450 105.587,168.820 105.837,168.600 105.986 C 168.380 106.134,167.390 106.500,166.400 106.798 C 165.410 107.095,164.429 107.488,164.220 107.670 C 164.011 107.851,163.592 108.000,163.288 108.000 C 161.309 108.000,148.518 115.191,141.643 120.169 C 135.735 124.447,125.752 134.105,122.801 138.400 C 122.272 139.170,121.731 139.890,121.600 140.000 C 121.469 140.110,120.929 140.830,120.400 141.600 C 119.871 142.370,119.331 143.090,119.199 143.200 C 119.067 143.310,117.653 145.531,116.058 148.136 C 111.318 155.874,108.040 163.282,105.232 172.600 C 104.341 175.559,102.972 182.154,102.012 188.113 C 101.472 191.469,101.436 208.463,101.962 211.540 C 102.175 212.783,102.553 215.150,102.803 216.800 C 103.230 219.627,103.465 220.717,104.487 224.600 C 111.255 250.318,126.990 271.447,149.671 285.273 C 153.223 287.438,161.005 291.296,164.000 292.376 C 164.770 292.654,165.760 293.024,166.200 293.200 C 166.640 293.376,167.630 293.736,168.400 294.000 C 169.170 294.264,170.160 294.631,170.600 294.815 C 171.779 295.308,179.456 297.223,182.000 297.658 C 187.950 298.676,189.442 298.847,195.200 299.171 C 204.109 299.671,216.120 298.709,223.000 296.944 C 226.330 296.090,228.409 295.589,229.705 295.329 C 230.313 295.207,230.908 294.949,231.029 294.754 C 231.149 294.559,231.599 294.400,232.029 294.400 C 232.459 294.400,233.123 294.241,233.505 294.047 C 233.887 293.852,234.740 293.471,235.400 293.200 C 236.060 292.929,236.913 292.548,237.295 292.353 C 237.677 292.159,238.228 292.000,238.520 292.000 C 239.734 292.000,256.793 282.731,257.600 281.633 C 257.710 281.484,258.430 280.929,259.200 280.400 C 259.970 279.871,260.690 279.331,260.800 279.200 C 260.910 279.069,261.628 278.522,262.395 277.986 C 266.049 275.430,276.260 265.210,278.823 261.543 C 279.339 260.804,279.869 260.110,280.000 260.000 C 280.131 259.890,280.671 259.170,281.200 258.400 C 281.729 257.630,282.273 256.910,282.409 256.800 C 283.564 255.867,292.000 240.500,292.000 239.330 C 292.000 239.038,292.180 238.800,292.400 238.800 C 292.620 238.800,292.800 238.350,292.800 237.800 C 292.800 237.250,292.980 236.800,293.200 236.800 C 293.420 236.800,293.600 236.386,293.600 235.880 C 293.600 235.374,293.743 234.789,293.918 234.580 C 294.093 234.371,294.465 233.480,294.745 232.600 C 295.024 231.720,295.400 230.640,295.581 230.200 C 296.087 228.966,297.280 224.384,297.977 221.000 C 301.124 205.712,300.674 187.845,296.799 174.200 C 296.549 173.320,296.253 172.150,296.142 171.600 C 295.940 170.600,295.418 169.212,294.753 167.905 C 294.559 167.523,294.400 166.936,294.400 166.600 C 294.400 166.264,294.220 165.632,294.000 165.195 C 293.780 164.758,293.420 164.042,293.200 163.605 C 292.980 163.168,292.800 162.448,292.800 162.005 C 292.800 161.562,292.620 161.200,292.400 161.200 C 292.180 161.200,292.000 160.954,292.000 160.654 C 292.000 158.927,281.964 141.667,279.990 140.000 C 279.860 139.890,279.473 139.390,279.131 138.888 C 273.887 131.210,261.148 120.164,250.400 113.976 C 249.850 113.659,249.310 113.305,249.200 113.189 C 248.970 112.946,240.649 108.881,239.300 108.353 C 237.341 107.585,236.169 107.091,235.505 106.753 C 235.123 106.559,234.484 106.400,234.085 106.400 C 233.686 106.400,233.189 106.249,232.980 106.063 C 232.118 105.300,222.013 102.719,217.000 101.981 C 214.247 101.577,201.191 100.368,200.800 100.482 C 200.690 100.514,198.080 100.672,195.000 100.834 M242.740 166.608 C 248.701 169.484,251.416 177.194,248.441 182.795 C 247.356 184.836,202.058 230.400,201.113 230.400 C 200.801 230.400,198.210 232.785,195.353 235.700 C 187.990 243.215,183.652 244.804,178.180 241.990 C 175.158 240.436,153.597 218.716,152.251 215.870 C 148.673 208.308,153.939 200.200,162.428 200.200 C 166.874 200.200,168.083 200.971,176.053 208.887 C 179.770 212.579,182.992 215.600,183.213 215.600 C 183.837 215.600,200.800 198.557,200.800 197.931 C 200.800 196.911,230.812 167.418,232.800 166.485 C 235.501 165.217,239.971 165.272,242.740 166.608 " stroke="none" fill="#ecf2f6" fill-rule="evenodd"></path><path id="path1" d="M201.298 49.845 L 201.400 99.800 204.800 100.086 C 208.735 100.416,213.623 100.954,218.247 101.564 C 222.738 102.157,234.929 105.596,235.868 106.535 C 236.014 106.681,236.466 106.800,236.872 106.800 C 237.278 106.800,237.923 106.964,238.305 107.164 C 238.687 107.364,241.430 108.720,244.400 110.176 C 261.248 118.437,276.345 131.943,285.341 146.800 C 286.207 148.230,287.429 150.152,288.058 151.072 C 288.686 151.992,289.199 152.892,289.197 153.072 C 289.195 153.339,292.209 159.732,293.640 162.495 C 293.838 162.877,294.000 163.464,294.000 163.800 C 294.000 164.136,294.159 164.723,294.353 165.105 C 296.193 168.722,298.816 178.447,299.557 184.400 C 300.977 195.803,301.083 201.938,300.036 212.000 C 299.634 215.863,298.431 222.500,297.608 225.400 C 296.836 228.117,295.537 232.252,295.220 233.000 C 295.033 233.440,294.664 234.430,294.400 235.200 C 293.640 237.412,293.399 237.981,291.600 241.800 C 290.667 243.780,289.706 245.850,289.464 246.400 C 289.222 246.950,288.569 248.123,288.012 249.007 C 286.962 250.673,286.759 251.004,284.944 254.000 C 280.453 261.412,269.280 273.734,262.639 278.600 C 262.038 279.040,260.434 280.224,259.073 281.230 C 255.257 284.055,249.738 287.296,244.116 290.016 C 238.774 292.600,238.288 292.814,236.000 293.600 C 235.230 293.864,234.195 294.243,233.700 294.440 C 231.353 295.378,230.888 295.538,229.300 295.954 C 228.365 296.199,226.835 296.601,225.900 296.846 C 224.965 297.092,223.750 297.437,223.200 297.614 C 222.650 297.791,221.390 298.054,220.400 298.200 C 219.410 298.346,217.520 298.642,216.200 298.859 C 214.880 299.075,211.010 299.466,207.600 299.726 L 201.400 300.200 201.298 350.157 L 201.197 400.113 205.684 399.901 C 208.437 399.770,210.228 399.517,210.319 399.244 C 210.400 399.000,210.977 398.800,211.600 398.800 C 212.223 398.800,212.801 398.597,212.883 398.350 C 212.966 398.102,213.518 397.900,214.109 397.900 C 214.701 397.900,215.088 397.743,214.969 397.550 C 214.850 397.358,215.213 397.200,215.776 397.200 C 216.339 397.200,216.800 397.020,216.800 396.800 C 216.800 396.580,217.340 396.400,218.000 396.400 C 218.660 396.400,219.200 396.237,219.200 396.037 C 219.200 395.837,220.100 395.443,221.200 395.161 C 222.300 394.879,223.200 394.503,223.200 394.324 C 223.200 394.146,223.650 394.000,224.200 394.000 C 224.750 394.000,225.200 393.820,225.200 393.600 C 225.200 393.380,225.560 393.200,226.000 393.200 C 226.440 393.200,226.800 393.020,226.800 392.800 C 226.800 392.580,227.261 392.400,227.824 392.400 C 228.404 392.400,228.740 392.227,228.600 392.000 C 228.458 391.770,228.830 391.599,229.476 391.598 C 230.094 391.596,231.116 391.326,231.746 390.998 C 232.376 390.669,233.141 390.400,233.446 390.400 C 233.751 390.400,234.000 390.253,234.000 390.072 C 234.000 389.892,234.900 389.500,236.000 389.200 C 237.100 388.900,238.000 388.542,238.000 388.402 C 238.000 388.263,238.630 387.902,239.400 387.600 C 240.170 387.298,240.800 386.904,240.800 386.725 C 240.800 386.546,241.160 386.400,241.600 386.400 C 242.040 386.400,242.400 386.220,242.400 386.000 C 242.400 385.780,242.760 385.600,243.200 385.600 C 243.640 385.600,244.000 385.420,244.000 385.200 C 244.000 384.980,244.360 384.800,244.800 384.800 C 245.240 384.800,245.600 384.620,245.600 384.400 C 245.600 384.180,245.960 384.000,246.400 384.000 C 246.840 384.000,247.200 383.820,247.200 383.600 C 247.200 383.380,247.616 383.200,248.125 383.200 C 248.633 383.200,249.436 382.840,249.908 382.400 C 250.380 381.960,251.044 381.600,251.383 381.600 C 251.722 381.600,252.000 381.420,252.000 381.200 C 252.000 380.980,252.360 380.800,252.800 380.800 C 253.240 380.800,253.600 380.620,253.600 380.400 C 253.600 380.180,253.960 380.000,254.400 380.000 C 254.840 380.000,255.200 379.820,255.200 379.600 C 255.200 379.380,255.560 379.200,256.000 379.200 C 256.440 379.200,256.800 379.020,256.800 378.800 C 256.800 378.580,257.030 378.400,257.312 378.400 C 257.593 378.400,258.083 378.040,258.400 377.600 C 258.717 377.160,259.297 376.800,259.688 376.800 C 260.080 376.800,260.400 376.620,260.400 376.400 C 260.400 376.180,260.760 376.000,261.200 376.000 C 261.640 376.000,262.000 375.820,262.000 375.600 C 262.000 375.380,262.347 375.200,262.771 375.200 C 263.196 375.200,263.813 374.930,264.143 374.600 C 264.473 374.270,264.960 374.000,265.225 374.000 C 265.489 374.000,265.997 373.685,266.353 373.300 C 266.709 372.915,267.270 372.541,267.600 372.470 C 267.930 372.398,268.260 372.173,268.333 371.970 C 268.407 371.766,268.752 371.600,269.100 371.600 C 269.448 371.600,269.616 371.483,269.473 371.339 C 269.210 371.077,270.971 370.000,271.662 370.000 C 271.866 370.000,272.420 369.640,272.892 369.200 C 273.364 368.760,273.987 368.400,274.275 368.400 C 274.564 368.400,274.800 368.220,274.800 368.000 C 274.800 367.780,274.998 367.600,275.240 367.600 C 275.481 367.600,276.156 367.105,276.740 366.500 C 277.323 365.895,278.295 365.145,278.900 364.832 C 279.505 364.520,280.000 364.115,280.000 363.932 C 280.000 363.750,280.288 363.600,280.640 363.600 C 280.991 363.600,281.783 363.060,282.400 362.400 C 283.017 361.740,283.737 361.200,284.000 361.200 C 284.263 361.200,284.983 360.660,285.600 360.000 C 286.217 359.340,286.918 358.800,287.159 358.800 C 287.400 358.800,288.295 358.170,289.147 357.400 C 290.000 356.630,290.824 356.000,290.980 356.000 C 291.135 356.000,291.954 355.280,292.800 354.400 C 293.646 353.520,294.521 352.800,294.745 352.800 C 294.970 352.800,296.775 351.180,298.757 349.200 C 300.739 347.220,302.494 345.600,302.658 345.600 C 303.224 345.600,305.200 343.448,305.206 342.825 C 305.211 342.377,305.300 342.338,305.521 342.686 C 305.740 343.031,306.060 342.865,306.615 342.122 C 307.047 341.543,308.075 340.387,308.900 339.551 C 309.725 338.715,310.400 337.844,310.400 337.616 C 310.400 337.387,310.597 337.245,310.837 337.300 C 311.078 337.355,311.483 337.050,311.737 336.622 C 311.992 336.194,313.235 334.809,314.500 333.544 C 315.765 332.279,316.800 331.054,316.800 330.822 C 316.800 330.590,316.980 330.400,317.200 330.400 C 317.420 330.400,317.600 330.206,317.600 329.969 C 317.600 329.731,318.275 328.876,319.100 328.068 C 320.438 326.756,321.676 325.230,324.174 321.812 C 324.599 321.229,325.364 320.268,325.873 319.676 C 326.382 319.084,326.799 318.415,326.800 318.188 C 326.800 317.962,327.160 317.517,327.600 317.200 C 328.040 316.883,328.400 316.343,328.400 316.000 C 328.400 315.657,328.760 315.117,329.200 314.800 C 329.640 314.483,330.000 313.991,330.000 313.708 C 330.000 313.425,330.540 312.628,331.200 311.937 C 331.860 311.246,332.400 310.521,332.400 310.324 C 332.400 310.127,332.760 309.580,333.200 309.108 C 333.640 308.636,334.000 308.013,334.000 307.725 C 334.000 307.436,334.180 307.200,334.400 307.200 C 334.620 307.200,334.800 306.930,334.800 306.600 C 334.800 306.270,334.980 306.000,335.200 306.000 C 335.420 306.000,335.600 305.730,335.600 305.400 C 335.600 305.070,335.780 304.800,336.000 304.800 C 336.220 304.800,336.400 304.530,336.400 304.200 C 336.400 303.870,336.580 303.600,336.800 303.600 C 337.020 303.600,337.200 303.240,337.200 302.800 C 337.200 302.360,337.345 302.000,337.521 302.000 C 337.698 302.000,338.283 301.103,338.821 300.006 C 339.360 298.910,339.935 298.010,340.100 298.006 C 340.265 298.003,340.400 297.640,340.400 297.200 C 340.400 296.760,340.566 296.400,340.768 296.400 C 340.971 296.400,341.255 295.860,341.400 295.200 C 341.545 294.540,341.829 294.000,342.032 294.000 C 342.234 294.000,342.400 293.655,342.400 293.233 C 342.400 292.812,342.588 292.404,342.818 292.327 C 343.048 292.251,343.265 291.798,343.301 291.322 C 343.337 290.845,343.509 290.544,343.683 290.651 C 343.857 290.759,344.000 290.567,344.000 290.224 C 344.000 289.881,344.180 289.600,344.400 289.600 C 344.620 289.600,344.800 289.251,344.800 288.824 C 344.800 288.397,344.980 287.936,345.200 287.800 C 345.420 287.664,345.600 287.193,345.600 286.753 C 345.600 286.313,345.780 286.064,346.000 286.200 C 346.227 286.340,346.400 286.004,346.400 285.424 C 346.400 284.861,346.580 284.400,346.800 284.400 C 347.020 284.400,347.200 283.950,347.200 283.400 C 347.200 282.850,347.380 282.400,347.600 282.400 C 347.820 282.400,348.000 281.939,348.000 281.376 C 348.000 280.796,348.173 280.460,348.400 280.600 C 348.620 280.736,348.800 280.477,348.800 280.024 C 348.800 279.571,348.980 279.200,349.200 279.200 C 349.420 279.200,349.600 278.840,349.600 278.400 C 349.600 277.960,349.780 277.600,350.000 277.600 C 350.220 277.600,350.400 277.060,350.400 276.400 C 350.400 275.740,350.580 275.200,350.800 275.200 C 351.020 275.200,351.200 274.928,351.200 274.595 C 351.200 274.262,351.380 273.632,351.600 273.195 C 351.820 272.758,352.180 272.042,352.400 271.605 C 352.620 271.168,352.800 270.392,352.800 269.881 C 352.800 269.369,353.160 268.564,353.600 268.092 C 354.040 267.620,354.400 266.776,354.400 266.217 C 354.400 265.658,354.580 265.200,354.800 265.200 C 355.020 265.200,355.200 264.660,355.200 264.000 C 355.200 263.340,355.380 262.800,355.600 262.800 C 355.820 262.800,356.000 262.260,356.000 261.600 C 356.000 260.940,356.180 260.400,356.400 260.400 C 356.620 260.400,356.800 259.860,356.800 259.200 C 356.800 258.540,356.980 258.000,357.200 258.000 C 357.420 258.000,357.600 257.580,357.600 257.067 C 357.600 256.553,357.725 256.008,357.878 255.855 C 358.215 255.519,358.377 254.793,358.675 252.300 C 358.800 251.255,359.059 250.400,359.251 250.400 C 359.443 250.400,359.600 249.860,359.600 249.200 C 359.600 248.540,359.780 248.000,360.000 248.000 C 360.220 248.000,360.400 247.280,360.400 246.400 C 360.400 245.520,360.580 244.800,360.800 244.800 C 361.020 244.800,361.200 244.080,361.200 243.200 C 361.200 242.320,361.380 241.600,361.600 241.600 C 361.820 241.600,362.000 240.970,362.000 240.200 C 362.000 239.430,362.151 238.800,362.335 238.800 C 362.520 238.800,362.695 238.138,362.726 237.330 C 362.756 236.521,362.965 235.675,363.190 235.450 C 363.416 235.224,363.600 234.266,363.600 233.320 C 363.600 232.374,363.780 231.600,364.000 231.600 C 364.220 231.600,364.400 230.700,364.400 229.600 C 364.400 228.500,364.580 227.600,364.800 227.600 C 365.023 227.600,365.200 226.525,365.200 225.176 C 365.200 223.663,365.350 222.846,365.600 223.000 C 365.850 223.154,366.000 222.349,366.000 220.857 C 366.000 219.542,366.170 218.407,366.378 218.333 C 366.586 218.260,366.794 216.978,366.841 215.484 C 366.889 213.991,367.078 212.675,367.264 212.561 C 367.449 212.446,367.600 211.553,367.600 210.576 C 367.600 209.599,367.780 208.800,368.000 208.800 C 368.237 208.800,368.400 207.325,368.400 205.176 C 368.400 202.863,368.545 201.642,368.800 201.800 C 369.057 201.959,369.200 200.604,369.200 198.024 C 369.200 195.811,369.359 194.000,369.554 194.000 C 369.749 194.000,369.934 192.338,369.967 190.307 C 369.999 188.276,370.200 186.440,370.413 186.227 C 370.632 186.008,370.800 182.918,370.800 179.120 C 370.800 174.929,370.950 172.400,371.198 172.400 C 371.460 172.400,371.539 159.282,371.427 133.900 C 371.260 95.651,371.084 88.000,370.372 88.000 C 370.167 88.000,370.000 87.381,370.000 86.624 C 370.000 85.867,369.820 85.136,369.600 85.000 C 369.380 84.864,369.200 84.213,369.200 83.553 C 369.200 82.855,369.033 82.456,368.800 82.600 C 368.562 82.747,368.400 82.271,368.400 81.424 C 368.400 80.641,368.220 80.000,368.000 80.000 C 367.780 80.000,367.600 79.640,367.600 79.200 C 367.600 78.760,367.420 78.400,367.200 78.400 C 366.980 78.400,366.800 78.130,366.800 77.800 C 366.800 77.470,366.620 77.200,366.400 77.200 C 366.180 77.200,366.000 76.840,366.000 76.400 C 366.000 75.960,365.820 75.600,365.600 75.600 C 365.380 75.600,365.200 75.240,365.200 74.800 C 365.200 74.360,365.020 74.000,364.800 74.000 C 364.580 74.000,364.400 73.716,364.400 73.369 C 364.400 73.021,363.680 72.046,362.800 71.200 C 361.920 70.354,361.200 69.469,361.200 69.231 C 361.200 68.994,361.020 68.800,360.800 68.800 C 360.580 68.800,360.400 68.519,360.400 68.176 C 360.400 67.833,360.220 67.664,360.000 67.800 C 359.780 67.936,359.600 67.767,359.600 67.424 C 359.600 67.081,359.432 66.800,359.227 66.800 C 359.022 66.800,358.740 66.440,358.600 66.000 C 358.460 65.560,358.131 65.200,357.869 65.200 C 357.606 65.200,356.945 64.660,356.400 64.000 C 355.855 63.340,355.262 62.800,355.083 62.800 C 354.903 62.800,354.181 62.261,353.478 61.602 C 352.775 60.943,352.000 60.403,351.756 60.402 C 351.512 60.401,350.649 59.950,349.838 59.400 C 349.028 58.850,348.102 58.400,347.782 58.400 C 347.462 58.400,347.200 58.220,347.200 58.000 C 347.200 57.780,346.840 57.600,346.400 57.600 C 345.960 57.600,345.600 57.420,345.600 57.200 C 345.600 56.980,345.060 56.800,344.400 56.800 C 343.740 56.800,343.200 56.620,343.200 56.400 C 343.200 56.180,342.761 56.000,342.224 56.000 C 341.687 56.000,341.136 55.820,341.000 55.600 C 340.864 55.380,340.313 55.200,339.776 55.200 C 339.239 55.200,338.800 55.038,338.800 54.840 C 338.800 54.376,336.041 53.994,330.900 53.746 C 328.645 53.637,326.800 53.380,326.800 53.174 C 326.800 52.966,324.941 52.800,322.600 52.800 C 320.067 52.800,318.400 52.641,318.400 52.400 C 318.400 52.167,317.067 52.000,315.200 52.000 C 313.333 52.000,312.000 51.833,312.000 51.600 C 312.000 51.380,311.021 51.200,309.824 51.200 C 308.627 51.200,307.536 51.020,307.400 50.800 C 307.264 50.580,306.184 50.400,305.000 50.400 C 303.816 50.400,302.736 50.220,302.600 50.000 C 302.464 49.780,301.564 49.600,300.600 49.600 C 299.636 49.600,298.736 49.420,298.600 49.200 C 298.464 48.980,297.733 48.800,296.976 48.800 C 296.219 48.800,295.600 48.620,295.600 48.400 C 295.600 48.180,294.891 48.000,294.024 48.000 C 293.157 48.000,292.336 47.820,292.200 47.600 C 292.064 47.380,291.423 47.200,290.776 47.200 C 290.129 47.200,289.600 47.020,289.600 46.800 C 289.600 46.580,288.880 46.400,288.000 46.400 C 287.120 46.400,286.400 46.220,286.400 46.000 C 286.400 45.780,285.995 45.597,285.500 45.594 C 284.524 45.587,281.785 44.718,281.341 44.274 C 281.190 44.123,280.657 44.000,280.157 44.000 C 279.657 44.000,279.134 43.817,278.996 43.593 C 278.858 43.370,278.581 43.288,278.381 43.412 C 278.180 43.536,277.608 43.410,277.108 43.133 C 276.609 42.855,276.080 42.622,275.933 42.614 C 275.787 42.606,275.532 42.465,275.367 42.300 C 275.202 42.135,274.647 42.000,274.133 42.000 C 273.620 42.000,273.200 41.820,273.200 41.600 C 273.200 41.380,272.660 41.200,272.000 41.200 C 271.340 41.200,270.800 41.020,270.800 40.800 C 270.800 40.580,270.451 40.400,270.024 40.400 C 269.597 40.400,269.136 40.220,269.000 40.000 C 268.864 39.780,268.313 39.600,267.776 39.600 C 267.239 39.600,266.800 39.420,266.800 39.200 C 266.800 38.980,266.440 38.800,266.000 38.800 C 265.560 38.800,265.200 38.620,265.200 38.400 C 265.200 38.180,264.840 38.000,264.400 38.000 C 263.960 38.000,263.600 37.820,263.600 37.600 C 263.600 37.380,263.240 37.200,262.800 37.200 C 262.360 37.200,262.000 37.020,262.000 36.800 C 262.000 36.580,261.640 36.400,261.200 36.400 C 260.760 36.400,260.400 36.220,260.400 36.000 C 260.400 35.780,260.040 35.600,259.600 35.600 C 259.160 35.600,258.800 35.420,258.800 35.200 C 258.800 34.980,258.530 34.800,258.200 34.800 C 257.870 34.800,257.600 34.620,257.600 34.400 C 257.600 34.180,257.150 34.000,256.600 34.000 C 256.050 34.000,255.600 33.820,255.600 33.600 C 255.600 33.380,255.358 33.200,255.062 33.200 C 254.766 33.200,254.198 32.840,253.800 32.400 C 253.402 31.960,252.834 31.600,252.538 31.600 C 252.242 31.600,252.000 31.420,252.000 31.200 C 252.000 30.980,251.722 30.800,251.383 30.800 C 251.044 30.800,250.380 30.440,249.908 30.000 C 249.436 29.560,248.813 29.200,248.525 29.200 C 248.236 29.200,248.000 29.020,248.000 28.800 C 248.000 28.580,247.706 28.400,247.347 28.400 C 246.988 28.400,246.357 28.011,245.944 27.536 C 245.532 27.061,245.076 26.791,244.930 26.937 C 244.784 27.082,244.334 26.902,243.930 26.537 C 243.526 26.171,243.086 25.980,242.953 26.114 C 242.820 26.247,242.265 25.826,241.720 25.178 C 241.175 24.530,240.515 24.000,240.253 24.000 C 239.991 24.000,239.524 23.650,239.215 23.221 C 238.907 22.793,238.526 22.522,238.369 22.619 C 238.212 22.716,237.981 22.526,237.854 22.198 C 237.728 21.869,237.349 21.600,237.013 21.600 C 236.676 21.600,236.400 21.420,236.400 21.200 C 236.400 20.980,236.100 20.800,235.733 20.800 C 235.367 20.800,235.178 20.689,235.314 20.552 C 235.647 20.219,234.594 19.200,233.917 19.200 C 233.620 19.200,233.124 18.850,232.815 18.421 C 232.507 17.993,232.106 17.735,231.924 17.847 C 231.743 17.959,231.486 17.769,231.354 17.425 C 231.222 17.081,230.951 16.800,230.751 16.800 C 230.552 16.800,228.859 15.270,226.989 13.400 C 225.119 11.530,223.446 10.000,223.272 10.000 C 223.099 10.000,221.835 8.920,220.465 7.600 C 219.095 6.280,217.798 5.200,217.583 5.200 C 217.369 5.200,216.628 4.660,215.937 4.000 C 215.246 3.340,214.337 2.800,213.917 2.800 C 213.497 2.800,213.264 2.620,213.400 2.400 C 213.536 2.180,213.277 2.000,212.824 2.000 C 212.371 2.000,212.000 1.820,212.000 1.600 C 212.000 1.380,211.475 1.200,210.833 1.200 C 210.192 1.200,209.601 1.003,209.521 0.763 C 209.435 0.506,207.699 0.237,205.286 0.108 L 201.197 -0.111 201.298 49.845 " stroke="none" fill="#04ac64" fill-rule="evenodd"></path><path id="path2" d="M234.397 166.354 C 231.917 167.158,230.074 168.806,216.065 182.740 L 201.200 197.528 201.200 213.564 C 201.200 222.384,201.336 229.600,201.501 229.600 C 202.283 229.600,247.532 183.696,248.225 182.200 C 252.258 173.498,243.460 163.417,234.397 166.354 M299.301 184.200 C 299.305 185.080,299.387 185.393,299.483 184.895 C 299.579 184.398,299.575 183.678,299.475 183.295 C 299.375 182.913,299.296 183.320,299.301 184.200 M299.301 215.800 C 299.305 216.680,299.387 216.993,299.483 216.495 C 299.579 215.998,299.575 215.278,299.475 214.895 C 299.375 214.513,299.296 214.920,299.301 215.800 M216.100 298.676 C 216.485 298.776,217.115 298.776,217.500 298.676 C 217.885 298.575,217.570 298.493,216.800 298.493 C 216.030 298.493,215.715 298.575,216.100 298.676 M209.700 299.487 C 210.305 299.578,211.295 299.578,211.900 299.487 C 212.505 299.395,212.010 299.320,210.800 299.320 C 209.590 299.320,209.095 299.395,209.700 299.487 " stroke="none" fill="#6aa7ab" fill-rule="evenodd"></path><path id="path3" d="M193.200 0.288 C 192.650 0.387,192.029 0.632,191.820 0.834 C 191.611 1.035,191.116 1.200,190.720 1.200 C 190.324 1.200,190.000 1.380,190.000 1.600 C 190.000 1.820,189.550 2.000,189.000 2.000 C 188.450 2.000,188.000 2.180,188.000 2.400 C 188.000 2.620,187.775 2.801,187.500 2.802 C 187.225 2.803,186.430 3.338,185.734 3.991 C 185.037 4.643,184.249 5.228,183.981 5.289 C 183.714 5.350,182.484 6.339,181.247 7.488 C 178.262 10.261,177.220 11.179,177.017 11.217 C 176.924 11.235,175.478 12.593,173.803 14.235 C 172.088 15.917,170.566 17.102,170.317 16.949 C 170.052 16.785,169.990 16.860,170.162 17.138 C 170.323 17.399,170.215 17.600,169.912 17.600 C 169.617 17.600,169.117 17.960,168.800 18.400 C 168.483 18.840,167.993 19.200,167.712 19.200 C 167.430 19.200,167.200 19.380,167.200 19.600 C 167.200 19.820,166.970 20.000,166.688 20.000 C 166.407 20.000,165.917 20.360,165.600 20.800 C 165.283 21.240,164.746 21.600,164.407 21.600 C 164.067 21.600,163.451 22.052,163.036 22.604 C 162.622 23.156,161.634 24.004,160.841 24.489 C 160.049 24.973,159.160 25.603,158.868 25.889 C 158.575 26.174,158.170 26.305,157.968 26.180 C 157.765 26.055,157.600 26.143,157.600 26.376 C 157.600 26.609,157.387 26.800,157.126 26.800 C 156.865 26.800,156.280 27.134,155.826 27.542 C 155.372 27.950,154.190 28.715,153.200 29.242 C 152.210 29.769,151.310 30.303,151.200 30.430 C 151.090 30.556,150.190 31.096,149.200 31.630 C 148.210 32.163,147.340 32.735,147.267 32.900 C 147.193 33.065,146.788 33.200,146.367 33.200 C 145.945 33.200,145.600 33.380,145.600 33.600 C 145.600 33.820,145.240 34.000,144.800 34.000 C 144.360 34.000,144.000 34.180,144.000 34.400 C 144.000 34.620,143.730 34.800,143.400 34.800 C 143.070 34.800,142.800 34.980,142.800 35.200 C 142.800 35.420,142.440 35.600,142.000 35.600 C 141.560 35.600,141.200 35.780,141.200 36.000 C 141.200 36.220,140.840 36.400,140.400 36.400 C 139.960 36.400,139.600 36.580,139.600 36.800 C 139.600 37.020,139.240 37.200,138.800 37.200 C 138.360 37.200,138.000 37.380,138.000 37.600 C 138.000 37.820,137.728 38.000,137.395 38.000 C 136.807 38.000,136.382 38.167,134.505 39.138 C 134.013 39.392,133.328 39.600,132.982 39.600 C 132.636 39.600,132.464 39.780,132.600 40.000 C 132.740 40.227,132.404 40.400,131.824 40.400 C 131.261 40.400,130.800 40.580,130.800 40.800 C 130.800 41.020,130.275 41.200,129.633 41.200 C 128.992 41.200,128.405 41.384,128.330 41.609 C 128.255 41.835,127.475 42.132,126.597 42.271 C 125.719 42.410,124.900 42.675,124.778 42.860 C 124.655 43.045,124.070 43.236,123.478 43.285 C 122.885 43.334,122.400 43.515,122.400 43.687 C 122.400 43.859,122.045 44.000,121.612 44.000 C 121.179 44.000,120.183 44.360,119.400 44.800 C 118.617 45.240,117.452 45.600,116.811 45.600 C 116.171 45.600,115.536 45.780,115.400 46.000 C 115.264 46.220,114.533 46.400,113.776 46.400 C 113.019 46.400,112.400 46.580,112.400 46.800 C 112.400 47.020,111.680 47.200,110.800 47.200 C 109.920 47.200,109.200 47.380,109.200 47.600 C 109.200 47.820,108.671 48.000,108.024 48.000 C 107.377 48.000,106.736 48.180,106.600 48.400 C 106.464 48.620,105.733 48.800,104.976 48.800 C 104.219 48.800,103.600 48.980,103.600 49.200 C 103.600 49.422,102.541 49.600,101.224 49.600 C 99.917 49.600,98.736 49.780,98.600 50.000 C 98.464 50.220,97.463 50.400,96.376 50.400 C 95.289 50.400,94.400 50.580,94.400 50.800 C 94.400 51.020,93.421 51.200,92.224 51.200 C 91.027 51.200,89.936 51.380,89.800 51.600 C 89.664 51.820,88.123 52.000,86.376 52.000 C 84.629 52.000,83.200 52.168,83.200 52.373 C 83.200 52.579,81.445 52.843,79.300 52.961 C 70.716 53.431,63.200 54.309,63.200 54.840 C 63.200 55.038,62.559 55.200,61.776 55.200 C 60.929 55.200,60.453 55.362,60.600 55.600 C 60.744 55.833,60.337 56.000,59.624 56.000 C 58.951 56.000,58.400 56.180,58.400 56.400 C 58.400 56.620,57.860 56.800,57.200 56.800 C 56.540 56.800,56.000 56.980,56.000 57.200 C 56.000 57.420,55.640 57.600,55.200 57.600 C 54.760 57.600,54.400 57.780,54.400 58.000 C 54.400 58.220,54.117 58.400,53.771 58.400 C 53.426 58.400,52.873 58.670,52.543 59.000 C 52.213 59.330,51.596 59.600,51.171 59.600 C 50.747 59.600,50.400 59.780,50.400 60.000 C 50.400 60.220,50.207 60.400,49.971 60.400 C 49.736 60.400,49.318 60.625,49.042 60.900 C 48.767 61.175,47.655 62.116,46.571 62.992 C 44.115 64.975,40.400 68.729,40.400 69.227 C 40.400 69.432,39.680 70.341,38.800 71.248 C 37.920 72.155,37.200 73.145,37.200 73.448 C 37.200 73.752,37.020 74.000,36.800 74.000 C 36.580 74.000,36.400 74.326,36.400 74.725 C 36.400 75.123,36.040 75.836,35.600 76.308 C 35.160 76.780,34.800 77.444,34.800 77.783 C 34.800 78.122,34.620 78.400,34.400 78.400 C 34.180 78.400,34.000 78.749,34.000 79.176 C 34.000 79.603,33.820 80.064,33.600 80.200 C 33.380 80.336,33.200 80.887,33.200 81.424 C 33.200 81.961,33.020 82.400,32.800 82.400 C 32.580 82.400,32.400 83.131,32.400 84.024 C 32.400 85.004,32.242 85.549,32.000 85.400 C 31.762 85.253,31.600 85.729,31.600 86.576 C 31.600 87.359,31.440 88.000,31.245 88.000 C 31.050 88.000,30.863 89.926,30.828 92.280 C 30.794 94.634,30.597 96.763,30.391 97.011 C 29.874 97.634,29.863 171.553,30.380 172.176 C 30.594 172.433,30.791 175.738,30.819 179.520 C 30.846 183.301,31.033 186.497,31.234 186.621 C 31.435 186.746,31.600 188.446,31.600 190.400 C 31.600 192.354,31.780 194.064,32.000 194.200 C 32.220 194.336,32.400 196.057,32.400 198.024 C 32.400 199.991,32.556 201.600,32.746 201.600 C 32.936 201.600,33.126 203.171,33.168 205.090 C 33.210 207.010,33.404 208.679,33.598 208.799 C 33.793 208.919,33.993 210.040,34.043 211.290 C 34.094 212.541,34.270 213.481,34.433 213.379 C 34.597 213.278,34.837 214.366,34.966 215.798 C 35.095 217.229,35.305 219.571,35.434 221.002 C 35.563 222.434,35.833 223.503,36.034 223.379 C 36.241 223.251,36.403 224.334,36.406 225.876 C 36.410 227.783,36.529 228.420,36.800 228.000 C 37.078 227.570,37.189 227.997,37.194 229.500 C 37.197 230.655,37.380 231.600,37.600 231.600 C 37.820 231.600,38.000 232.410,38.000 233.400 C 38.000 234.390,38.162 235.200,38.360 235.200 C 38.558 235.200,38.822 235.965,38.947 236.900 C 39.494 240.989,39.706 242.018,40.042 242.226 C 40.239 242.348,40.400 243.056,40.400 243.800 C 40.400 244.544,40.580 245.264,40.800 245.400 C 41.020 245.536,41.200 246.177,41.200 246.824 C 41.200 247.471,41.362 248.000,41.560 248.000 C 41.758 248.000,42.024 248.855,42.152 249.900 C 42.396 251.888,42.542 252.603,42.910 253.600 C 43.747 255.869,44.294 257.972,44.098 258.168 C 43.971 258.296,44.077 258.400,44.333 258.400 C 44.590 258.400,44.800 258.762,44.800 259.205 C 44.800 259.648,44.967 260.323,45.171 260.705 C 45.525 261.369,45.796 262.132,45.985 263.000 C 46.034 263.220,46.326 264.007,46.636 264.749 C 46.946 265.491,47.200 266.421,47.200 266.816 C 47.200 267.210,47.378 267.593,47.597 267.667 C 47.815 267.740,48.034 268.295,48.084 268.900 C 48.134 269.505,48.315 270.000,48.487 270.000 C 48.659 270.000,48.800 270.360,48.800 270.800 C 48.800 271.240,48.980 271.600,49.200 271.600 C 49.420 271.600,49.600 272.050,49.600 272.600 C 49.600 273.150,49.780 273.600,50.000 273.600 C 50.220 273.600,50.400 274.039,50.400 274.576 C 50.400 275.113,50.580 275.664,50.800 275.800 C 51.020 275.936,51.200 276.397,51.200 276.824 C 51.200 277.251,51.380 277.600,51.600 277.600 C 51.820 277.600,52.000 277.960,52.000 278.400 C 52.000 278.840,52.180 279.200,52.400 279.200 C 52.620 279.200,52.800 279.639,52.800 280.176 C 52.800 280.713,52.980 281.264,53.200 281.400 C 53.420 281.536,53.600 282.007,53.600 282.447 C 53.600 282.887,53.780 283.136,54.000 283.000 C 54.228 282.859,54.400 283.204,54.400 283.800 C 54.400 284.396,54.572 284.741,54.800 284.600 C 55.020 284.464,55.200 284.723,55.200 285.176 C 55.200 285.629,55.380 286.000,55.600 286.000 C 55.820 286.000,56.000 286.450,56.000 287.000 C 56.000 287.550,56.180 288.000,56.400 288.000 C 56.620 288.000,56.800 288.360,56.800 288.800 C 56.800 289.240,56.980 289.600,57.200 289.600 C 57.420 289.600,57.600 289.870,57.600 290.200 C 57.600 290.530,57.780 290.800,58.000 290.800 C 58.220 290.800,58.400 291.064,58.400 291.386 C 58.400 291.951,60.094 295.277,60.903 296.300 C 61.120 296.575,61.174 296.800,61.022 296.800 C 60.870 296.800,61.130 297.340,61.600 298.000 C 62.070 298.660,62.339 299.200,62.199 299.200 C 62.058 299.200,62.227 299.485,62.575 299.832 C 62.923 300.180,63.088 300.658,62.942 300.894 C 62.785 301.149,62.864 301.207,63.138 301.038 C 63.412 300.869,63.600 301.007,63.600 301.376 C 63.600 301.719,63.736 302.000,63.902 302.000 C 64.069 302.000,64.459 302.585,64.770 303.300 C 65.081 304.015,65.445 304.690,65.578 304.800 C 65.711 304.910,66.439 306.035,67.195 307.300 C 67.951 308.565,68.711 309.600,68.885 309.600 C 69.058 309.600,69.200 309.920,69.200 310.312 C 69.200 310.703,69.560 311.283,70.000 311.600 C 70.440 311.917,70.800 312.507,70.800 312.912 C 70.800 313.316,70.980 313.536,71.200 313.400 C 71.420 313.264,71.600 313.433,71.600 313.776 C 71.600 314.119,71.780 314.400,72.000 314.400 C 72.220 314.400,72.400 314.771,72.400 315.224 C 72.400 315.677,72.580 315.936,72.800 315.800 C 73.020 315.664,73.200 315.833,73.200 316.176 C 73.200 316.519,73.380 316.800,73.600 316.800 C 73.820 316.800,74.000 316.988,74.000 317.217 C 74.000 317.446,74.183 317.851,74.407 318.117 C 76.075 320.094,76.545 320.732,77.048 321.700 C 77.363 322.305,77.787 322.800,77.991 322.800 C 78.195 322.800,78.949 323.655,79.666 324.700 C 80.384 325.745,81.382 327.013,81.885 327.518 C 82.388 328.023,82.800 328.574,82.800 328.742 C 82.800 328.910,84.061 330.387,85.602 332.024 C 89.544 336.210,90.061 336.800,89.786 336.800 C 89.371 336.800,90.562 337.830,91.300 338.110 C 91.685 338.256,92.000 338.562,92.000 338.790 C 92.000 339.281,96.717 344.000,97.208 344.000 C 97.394 344.000,97.668 344.384,97.817 344.853 C 98.029 345.523,98.163 345.587,98.438 345.153 C 98.721 344.706,98.789 344.725,98.794 345.254 C 98.797 345.614,99.289 346.229,99.887 346.621 C 100.486 347.012,102.006 348.383,103.265 349.667 C 104.525 350.950,105.686 352.000,105.844 352.000 C 106.003 352.000,106.418 352.265,106.766 352.588 C 107.115 352.912,108.036 353.767,108.813 354.488 C 110.534 356.086,115.042 359.600,115.370 359.600 C 115.500 359.600,116.172 360.140,116.863 360.800 C 117.554 361.460,118.322 362.000,118.571 362.000 C 118.820 362.000,119.283 362.360,119.600 362.800 C 119.917 363.240,120.417 363.600,120.710 363.600 C 121.003 363.600,121.819 364.139,122.522 364.798 C 123.225 365.457,123.985 365.997,124.212 365.998 C 124.438 365.999,124.883 366.360,125.200 366.800 C 125.517 367.240,126.007 367.600,126.288 367.600 C 126.570 367.600,126.800 367.780,126.800 368.000 C 126.800 368.220,127.070 368.400,127.400 368.400 C 127.730 368.400,128.000 368.580,128.000 368.800 C 128.000 369.020,128.270 369.200,128.600 369.200 C 128.930 369.200,129.200 369.380,129.200 369.600 C 129.200 369.820,129.560 370.000,130.000 370.000 C 130.440 370.000,130.800 370.159,130.800 370.354 C 130.800 370.549,131.385 371.007,132.100 371.371 C 132.815 371.735,134.480 372.733,135.800 373.588 C 137.120 374.444,138.515 375.156,138.900 375.172 C 139.285 375.187,139.600 375.380,139.600 375.600 C 139.600 375.820,139.894 376.000,140.253 376.000 C 140.612 376.000,141.242 376.388,141.653 376.861 C 142.064 377.335,142.400 377.595,142.400 377.439 C 142.400 377.282,142.940 377.474,143.600 377.864 C 144.260 378.254,144.800 378.714,144.800 378.886 C 144.800 379.059,145.072 379.200,145.405 379.200 C 146.114 379.200,147.430 379.911,148.555 380.900 C 148.993 381.285,149.587 381.600,149.875 381.600 C 150.164 381.600,150.403 381.825,150.406 382.100 C 150.410 382.433,150.542 382.400,150.800 382.000 C 151.013 381.670,151.192 381.580,151.197 381.800 C 151.207 382.238,153.050 383.200,153.880 383.200 C 154.166 383.200,154.400 383.380,154.400 383.600 C 154.400 383.820,154.771 384.000,155.224 384.000 C 155.677 384.000,155.948 384.161,155.827 384.357 C 155.705 384.553,156.415 384.952,157.403 385.244 C 158.391 385.536,159.200 385.915,159.200 386.087 C 159.200 386.259,159.470 386.400,159.800 386.400 C 160.130 386.400,160.400 386.580,160.400 386.800 C 160.400 387.020,160.816 387.200,161.325 387.200 C 161.833 387.200,162.636 387.560,163.108 388.000 C 163.580 388.440,164.435 388.800,165.007 388.800 C 165.579 388.800,165.959 388.943,165.851 389.117 C 165.744 389.291,166.045 389.463,166.522 389.499 C 166.998 389.535,167.451 389.752,167.527 389.982 C 167.604 390.212,167.901 390.400,168.188 390.400 C 168.474 390.400,169.224 390.669,169.854 390.998 C 170.484 391.326,171.315 391.596,171.700 391.598 C 172.085 391.599,172.403 391.825,172.406 392.100 C 172.410 392.433,172.542 392.400,172.800 392.000 C 173.058 391.600,173.190 391.567,173.194 391.900 C 173.197 392.175,173.560 392.400,174.000 392.400 C 174.440 392.400,174.801 392.535,174.803 392.700 C 174.807 393.098,176.779 394.000,177.646 394.000 C 178.024 394.000,178.393 394.178,178.467 394.397 C 178.540 394.615,179.095 394.834,179.700 394.884 C 180.305 394.934,180.800 395.115,180.800 395.287 C 180.800 395.459,181.160 395.600,181.600 395.600 C 182.040 395.600,182.400 395.780,182.400 396.000 C 182.400 396.220,182.845 396.400,183.388 396.400 C 183.931 396.400,185.017 396.760,185.800 397.200 C 186.583 397.640,187.568 398.000,187.989 398.000 C 188.409 398.000,188.864 398.180,189.000 398.400 C 189.136 398.620,189.672 398.800,190.190 398.800 C 190.709 398.800,191.201 399.004,191.285 399.254 C 191.381 399.544,193.196 399.780,196.315 399.909 L 201.194 400.110 201.297 350.097 L 201.400 300.085 196.400 299.825 C 190.440 299.515,181.834 298.303,177.400 297.150 C 173.405 296.111,169.251 294.881,168.200 294.427 C 167.760 294.236,166.770 293.864,166.000 293.600 C 163.728 292.820,163.092 292.559,161.262 291.657 C 160.306 291.186,159.271 290.800,158.962 290.800 C 158.653 290.800,158.400 290.620,158.400 290.400 C 158.400 290.180,158.145 290.000,157.833 290.000 C 157.069 290.000,152.598 287.620,148.200 284.873 C 129.994 273.500,116.395 257.312,107.985 237.000 C 99.563 216.658,98.731 187.827,106.009 168.500 C 106.444 167.345,107.181 165.365,107.646 164.100 C 108.111 162.835,109.085 160.540,109.810 159.000 C 110.536 157.460,111.508 155.390,111.972 154.400 C 112.435 153.410,113.127 152.060,113.509 151.400 C 114.557 149.592,118.140 143.856,118.507 143.400 C 118.684 143.180,119.903 141.568,121.217 139.819 C 129.138 129.270,139.956 119.749,151.600 113.079 C 154.862 111.210,161.484 108.108,164.900 106.848 C 166.165 106.382,168.145 105.649,169.300 105.219 C 175.936 102.752,186.304 100.869,197.000 100.190 L 201.400 99.910 201.297 49.955 L 201.194 0.000 197.697 0.054 C 195.774 0.084,193.750 0.190,193.200 0.288 " stroke="none" fill="#04db7b" fill-rule="evenodd"></path><path id="path4" d="M194.200 100.391 C 191.946 100.636,192.570 100.690,197.400 100.670 C 203.886 100.642,211.006 101.037,214.200 101.602 C 217.676 102.217,220.610 102.501,220.317 102.195 C 219.278 101.113,199.882 99.772,194.200 100.391 M186.600 101.200 C 185.458 101.490,185.478 101.506,187.000 101.513 C 187.880 101.517,189.050 101.376,189.600 101.200 C 190.982 100.757,188.340 100.757,186.600 101.200 M181.800 101.868 C 178.196 102.657,171.009 104.584,169.300 105.219 C 168.145 105.649,166.165 106.382,164.900 106.848 C 148.782 112.792,132.533 124.939,121.692 139.148 C 118.913 142.791,118.650 143.200,119.090 143.200 C 119.276 143.200,119.743 142.667,120.128 142.015 C 120.513 141.363,121.053 140.598,121.327 140.315 C 121.602 140.032,122.262 139.170,122.795 138.400 C 125.791 134.068,135.746 124.438,141.643 120.169 C 148.518 115.191,161.309 108.000,163.288 108.000 C 163.592 108.000,164.011 107.851,164.220 107.670 C 164.429 107.488,165.410 107.095,166.400 106.798 C 167.390 106.500,168.380 106.146,168.600 106.011 C 169.050 105.736,170.926 105.142,173.600 104.427 C 174.590 104.162,175.940 103.795,176.600 103.610 C 177.942 103.235,180.884 102.575,183.600 102.040 C 185.264 101.712,185.294 101.686,184.000 101.689 C 183.230 101.691,182.240 101.772,181.800 101.868 M221.600 102.800 C 223.036 103.260,223.684 103.260,223.400 102.800 C 223.264 102.580,222.578 102.418,221.876 102.440 C 220.657 102.478,220.645 102.494,221.600 102.800 M224.800 103.600 C 226.342 104.094,227.164 104.094,226.400 103.600 C 226.070 103.387,225.350 103.227,224.800 103.246 L 223.800 103.280 224.800 103.600 M228.200 104.400 C 229.396 104.914,230.395 104.914,229.600 104.400 C 229.270 104.187,228.640 104.022,228.200 104.034 L 227.400 104.056 228.200 104.400 M230.800 105.200 C 231.130 105.413,231.670 105.588,232.000 105.588 C 232.533 105.588,232.533 105.545,232.000 105.200 C 231.670 104.987,231.130 104.812,230.800 104.812 C 230.267 104.812,230.267 104.855,230.800 105.200 M235.400 106.800 C 235.536 107.020,235.909 107.200,236.229 107.200 C 236.549 107.200,237.123 107.359,237.505 107.553 C 237.887 107.748,238.650 108.086,239.200 108.306 C 240.679 108.897,248.967 112.944,249.200 113.189 C 249.310 113.305,249.850 113.659,250.400 113.976 C 254.736 116.472,257.654 118.436,263.100 122.523 C 263.375 122.729,263.600 122.793,263.600 122.665 C 263.600 122.231,256.228 116.961,252.168 114.491 C 245.669 110.539,234.562 105.444,235.400 106.800 M264.000 122.995 C 264.000 123.148,264.852 124.022,265.894 124.937 C 270.357 128.857,277.771 136.716,279.193 139.034 C 279.519 139.565,279.946 140.000,280.142 140.000 C 280.560 140.000,280.291 139.635,276.750 135.400 C 273.081 131.012,264.000 122.177,264.000 122.995 M282.052 142.800 C 285.679 147.949,292.000 159.295,292.000 160.654 C 292.000 160.954,292.180 161.200,292.400 161.200 C 292.620 161.200,292.800 161.562,292.800 162.005 C 292.800 162.448,292.967 163.123,293.171 163.505 C 293.375 163.887,293.649 164.541,293.780 164.957 C 293.911 165.374,294.112 165.621,294.226 165.507 C 294.594 165.140,290.344 155.303,288.564 152.400 C 288.227 151.850,287.851 151.085,287.729 150.700 C 287.607 150.315,287.348 150.000,287.153 150.000 C 286.959 150.000,286.800 149.815,286.800 149.588 C 286.800 149.020,281.689 141.366,280.879 140.722 C 280.517 140.435,281.045 141.370,282.052 142.800 M116.600 146.286 C 115.720 147.755,114.505 149.776,113.900 150.778 C 113.295 151.780,112.424 153.410,111.965 154.400 C 111.505 155.390,110.536 157.460,109.810 159.000 C 109.085 160.540,108.111 162.835,107.646 164.100 C 107.181 165.365,106.444 167.345,106.009 168.500 C 104.170 173.383,101.273 187.229,101.701 189.087 C 101.791 189.479,101.996 188.720,102.157 187.400 C 102.580 183.921,104.267 175.804,105.232 172.600 C 107.975 163.496,111.364 155.771,115.712 148.713 C 117.106 146.451,118.381 144.375,118.547 144.100 C 118.712 143.825,118.702 143.603,118.524 143.608 C 118.346 143.612,117.480 144.817,116.600 146.286 M232.800 166.485 C 230.812 167.418,200.800 196.911,200.800 197.931 C 200.800 198.557,183.837 215.600,183.213 215.600 C 182.992 215.600,179.770 212.579,176.053 208.887 C 168.083 200.971,166.874 200.200,162.428 200.200 C 153.939 200.200,148.673 208.308,152.251 215.870 C 153.597 218.716,175.158 240.436,178.180 241.990 C 183.652 244.804,187.990 243.215,195.353 235.700 C 198.210 232.785,200.801 230.400,201.113 230.400 C 202.085 230.400,247.367 184.823,248.410 182.795 C 249.105 181.442,249.358 180.212,249.434 177.800 L 249.536 174.600 249.246 177.600 C 249.086 179.250,248.624 181.320,248.219 182.200 C 247.531 183.696,202.288 229.600,201.501 229.600 C 201.336 229.600,201.200 222.384,201.200 213.564 L 201.200 197.528 216.069 182.737 C 225.046 173.807,231.584 167.616,232.569 167.113 C 235.896 165.414,240.799 165.726,244.100 167.847 C 244.925 168.378,245.600 168.649,245.600 168.452 C 245.600 166.212,236.394 164.798,232.800 166.485 M294.422 166.505 C 294.410 166.893,294.567 167.523,294.771 167.905 C 294.975 168.287,295.249 168.941,295.380 169.357 C 295.511 169.774,295.711 170.022,295.823 169.910 C 295.936 169.797,295.672 168.827,295.236 167.753 C 294.800 166.679,294.434 166.117,294.422 166.505 M246.009 169.051 C 246.004 169.299,246.278 169.733,246.618 170.015 C 246.958 170.297,247.668 171.444,248.194 172.564 C 248.721 173.684,249.163 174.368,249.176 174.084 C 249.206 173.437,247.886 170.921,246.822 169.600 C 246.380 169.050,246.014 168.803,246.009 169.051 M296.012 171.400 C 296.012 171.840,296.187 172.470,296.400 172.800 C 296.721 173.297,296.788 173.262,296.788 172.600 C 296.788 172.160,296.613 171.530,296.400 171.200 C 296.079 170.703,296.012 170.738,296.012 171.400 M296.812 174.400 C 296.812 174.730,296.987 175.270,297.200 175.600 C 297.545 176.133,297.588 176.133,297.588 175.600 C 297.588 175.270,297.413 174.730,297.200 174.400 C 296.855 173.867,296.812 173.867,296.812 174.400 M297.646 177.600 C 297.665 177.930,297.824 178.650,298.000 179.200 L 298.320 180.200 298.354 179.200 C 298.373 178.650,298.213 177.930,298.000 177.600 C 297.655 177.067,297.616 177.067,297.646 177.600 M298.657 182.600 C 298.791 183.920,298.968 185.075,299.050 185.167 C 299.369 185.521,299.124 181.756,298.779 181.000 C 298.538 180.472,298.496 181.016,298.657 182.600 M299.449 188.200 C 299.592 189.740,299.775 191.075,299.855 191.167 C 300.207 191.570,299.946 186.538,299.588 186.000 C 299.313 185.588,299.270 186.279,299.449 188.200 M101.020 196.100 C 100.875 199.015,100.919 203.290,101.117 205.600 C 101.446 209.436,101.482 208.977,101.526 200.300 C 101.580 189.643,101.409 188.225,101.020 196.100 M300.149 200.200 C 300.149 204.928,300.258 207.044,300.439 205.800 C 300.818 203.193,300.821 196.691,300.445 194.400 C 300.264 193.301,300.149 195.561,300.149 200.200 M299.671 210.000 C 299.627 210.770,299.491 212.120,299.369 213.000 C 299.193 214.275,299.238 214.458,299.594 213.900 C 299.840 213.513,299.975 212.170,299.896 210.900 C 299.815 209.619,299.716 209.220,299.671 210.000 M101.600 211.233 C 101.600 212.643,103.086 221.195,103.575 222.600 L 103.992 223.800 103.781 222.400 C 103.665 221.630,103.404 220.100,103.202 219.000 C 103.000 217.900,102.636 215.564,102.394 213.810 C 101.948 210.587,101.600 209.457,101.600 211.233 M298.865 215.600 C 298.825 216.150,298.699 217.320,298.585 218.200 C 298.406 219.594,298.434 219.673,298.808 218.814 C 299.045 218.272,299.171 217.102,299.089 216.214 C 299.007 215.326,298.906 215.050,298.865 215.600 M297.853 221.341 C 297.686 222.188,297.641 222.975,297.755 223.088 C 298.058 223.391,298.497 221.385,298.314 220.532 C 298.220 220.090,298.037 220.411,297.853 221.341 M104.027 224.216 C 103.880 226.475,107.531 236.440,111.568 244.800 C 115.762 253.484,122.714 263.098,130.215 270.589 C 138.147 278.507,154.498 290.000,157.833 290.000 C 158.145 290.000,158.400 290.180,158.400 290.400 C 158.400 290.620,158.653 290.800,158.962 290.800 C 159.271 290.800,160.306 291.186,161.262 291.657 C 163.092 292.559,163.728 292.820,166.000 293.600 C 166.770 293.864,167.760 294.224,168.200 294.400 C 177.607 298.154,198.576 301.017,206.600 299.644 C 208.935 299.244,208.897 299.236,205.200 299.366 C 203.110 299.439,198.610 299.347,195.200 299.161 C 189.442 298.847,187.957 298.677,182.000 297.658 C 179.456 297.223,171.779 295.308,170.600 294.815 C 170.160 294.631,169.170 294.264,168.400 294.000 C 167.630 293.736,166.640 293.376,166.200 293.200 C 165.760 293.024,164.770 292.654,164.000 292.376 C 137.223 282.721,113.260 256.152,105.215 227.200 C 104.610 225.020,104.064 223.650,104.027 224.216 M297.000 224.800 C 296.850 225.273,296.817 225.750,296.927 225.860 C 297.037 225.970,297.250 225.673,297.400 225.200 C 297.550 224.727,297.583 224.250,297.473 224.140 C 297.363 224.030,297.150 224.327,297.000 224.800 M296.200 228.000 C 296.050 228.473,296.017 228.950,296.127 229.060 C 296.237 229.170,296.450 228.873,296.600 228.400 C 296.750 227.927,296.783 227.450,296.673 227.340 C 296.563 227.230,296.350 227.527,296.200 228.000 M295.372 230.643 C 295.236 231.059,294.938 231.901,294.709 232.513 C 294.480 233.125,294.386 233.720,294.501 233.835 C 294.616 233.949,295.000 233.193,295.354 232.154 C 295.708 231.115,295.912 230.179,295.808 230.075 C 295.704 229.971,295.508 230.226,295.372 230.643 M293.867 234.667 C 293.720 234.813,293.611 235.308,293.625 235.767 C 293.649 236.533,293.682 236.523,294.034 235.642 C 294.426 234.663,294.344 234.189,293.867 234.667 M292.800 237.800 C 292.800 238.350,292.620 238.800,292.400 238.800 C 292.180 238.800,292.000 239.038,292.000 239.330 C 292.000 240.102,287.675 248.445,285.225 252.400 C 284.066 254.270,283.036 255.935,282.936 256.100 C 282.835 256.265,282.913 256.400,283.109 256.400 C 283.305 256.400,283.715 255.905,284.020 255.300 C 284.326 254.695,285.076 253.448,285.688 252.528 C 286.299 251.608,286.800 250.663,286.800 250.428 C 286.800 250.193,286.935 249.999,287.100 249.997 C 287.265 249.995,287.603 249.590,287.850 249.097 C 293.213 238.417,293.917 236.800,293.200 236.800 C 292.980 236.800,292.800 237.250,292.800 237.800 M281.296 258.205 C 280.799 258.972,280.529 259.598,280.696 259.595 C 280.863 259.592,281.407 258.962,281.904 258.195 C 282.401 257.428,282.671 256.802,282.504 256.805 C 282.337 256.808,281.793 257.438,281.296 258.205 M279.114 261.115 C 277.263 264.249,265.061 276.456,261.932 278.304 C 260.949 278.885,260.426 279.600,260.985 279.600 C 261.293 279.600,268.050 273.823,270.414 271.539 C 274.672 267.425,280.913 260.000,280.113 260.000 C 279.926 260.000,279.476 260.502,279.114 261.115 M258.905 280.525 C 257.154 281.709,257.237 282.243,258.995 281.104 C 259.762 280.607,260.392 280.065,260.395 279.900 C 260.401 279.510,260.416 279.504,258.905 280.525 M253.400 284.315 C 249.214 286.878,239.296 292.000,238.520 292.000 C 238.228 292.000,237.677 292.167,237.295 292.371 C 236.913 292.575,236.259 292.849,235.843 292.980 C 235.426 293.111,235.179 293.312,235.293 293.426 C 235.718 293.851,240.380 291.815,249.897 287.049 C 250.390 286.802,250.795 286.465,250.797 286.300 C 250.799 286.135,250.974 286.000,251.187 286.000 C 251.399 286.000,252.669 285.292,254.008 284.426 C 255.347 283.561,256.658 282.775,256.922 282.681 C 257.185 282.587,257.310 282.420,257.200 282.310 C 257.090 282.201,255.380 283.103,253.400 284.315 M231.000 294.800 C 230.708 295.273,231.099 295.273,232.200 294.800 C 232.971 294.469,232.969 294.455,232.124 294.428 C 231.642 294.413,231.136 294.580,231.000 294.800 M228.400 295.600 C 227.605 296.114,228.604 296.114,229.800 295.600 L 230.600 295.256 229.800 295.234 C 229.360 295.222,228.730 295.387,228.400 295.600 M225.200 296.400 C 224.667 296.745,224.667 296.788,225.200 296.788 C 225.530 296.788,226.070 296.613,226.400 296.400 C 226.933 296.055,226.933 296.012,226.400 296.012 C 226.070 296.012,225.530 296.187,225.200 296.400 M222.200 297.200 L 221.400 297.544 222.200 297.566 C 222.640 297.578,223.270 297.413,223.600 297.200 C 224.395 296.686,223.396 296.686,222.200 297.200 M217.400 298.000 L 215.800 298.286 217.400 298.303 C 218.280 298.313,219.450 298.176,220.000 298.000 L 221.000 297.680 220.000 297.697 C 219.450 297.706,218.280 297.842,217.400 298.000 M211.400 298.800 L 209.000 299.066 211.600 299.105 C 213.030 299.126,214.560 298.989,215.000 298.800 C 215.975 298.381,215.187 298.381,211.400 298.800 " stroke="none" fill="#84d4b4" fill-rule="evenodd"></path></g></svg>